<svg xmlns="http://www.w3.org/2000/svg" width="122" height="122" stroke="none" stroke-linecap="round" stroke-linejoin="round" fill="#fff" fill-rule="evenodd"><path d="M69.0679.0172l-5.2135.686 1.6464.2743c.3656.2745.3656.5489 0 .8233-2.0094-.1013-3.93.3562-5.7626 1.3719-3.3453 2.9866-5.2663 6.6912-5.7625 11.1136.1967.6388.471 1.2335.8231 1.7836-.14.5011-.3687.5469-.6859.1372-.181.8325-.044 1.6099.4116 2.3324-.5338-.0351-1.0365.0106-1.5093.1374-.4916-.9132-1.0859-1.0043-1.7836-.2745-2.9491-.5773-5.6013.0172-7.9575 1.7836-3.3321 3.1148-4.018 6.7277-2.0585 10.8389.1164-1.0123.3453-1.0582.6861-.137 2.0393.4348 2.4511 1.487 1.2348 3.1556-1.5022 1.077-3.1945 1.7629-5.0765 2.0581-1.7905 1.2101-3.7116 2.2163-5.7623 3.0184l-1.235 1.235c-2.8005 4.5895-5.5444 9.2545-8.2322 13.9946-1.7342 3.6909-2.8774 7.5325-3.4298 11.5249-1.0077.1878-1.2821.7367-.8235 1.6467-.4132.342-.8247.342-1.2349 0a11.671 11.671 0 0 1 0-3.5673c.7842-.3727 1.0129-.9214.6862-1.6466a97.416 97.416 0 0 1 1.7838-11.525c2.034-3.7944 4.1376-7.5447 6.3111-11.2507 1.3057-1.8555 2.8148-3.5477 4.5277-5.0764 3.3772-1.7297 5.5264-4.4278 6.4486-8.095.2481-4.1115 2.0319-7.3586 5.3508-9.7416 2.315-.9908 4.6933-1.814 7.1347-2.4696 1.0264-.4769 1.8955-1.163 2.6067-2.0579 1.0954-2.8972 1.2785-5.8241.5489-8.7811-1.318-1.5937-2.9187-2.1427-4.8021-1.6465-.2191-.1252-.3104-.3084-.2742-.5487 1.3047-.5091 2.6768-.8293 4.1159-.9605C57.5421.0172 63.3049-.0286 69.0679.0172z" fill="#5b1716"/><path d="M72.087.8404c15.3846 3.0754 27.8701 10.8499 37.4563 23.3244 10.7775 15.3464 14.1616 32.2683 10.1529 50.7653-5.5986 20.201-18.0843 34.3323-37.4567 42.3957-.9297.2046-1.8446.433-2.7438.6862-.1985-.1149-.3352-.2977-.4115-.549-.904.2828-1.7729.146-2.6069-.4119.3657-.1827.3657-.3654 0-.5482-1.7667-.863-3.5045-1.7777-5.214-2.7447-.7706-.4356-.9535-1.0298-.5487-1.7834.7636-.482 1.3582-1.1222 1.7838-1.9209l.2743.5494c.4337-.7799 1.0288-1.0541 1.7835-.8236.6798-.4583 1.0916-1.0986 1.2351-1.9211a1.796 1.796 0 0 0 .823.8234c.2287-.4116.549-.7314.9607-.9602.7185-.0415 1.3592-.2704 1.9207-.6861l.5487.2747c.6451-1.3507 1.6514-1.854 3.0187-1.5095-1.0279.0095-1.2112-.2646-.5492-.8235 1.3877-.2822 2.5766-.9224 3.5676-1.9208 3.3813-2.833 6.583-5.8512 9.604-9.0553a27.882 27.882 0 0 1 8.2323-2.4693c2.8542-.7506 4.73-2.5341 5.6255-5.3514 1.1727-4.8359 1.4934-9.6835.9601-14.5433-.2037-2.2068-.478-4.4021-.8233-6.5857a3.122 3.122 0 0 0 .2747-.6859c-.797-1.8792-1.209-3.9378-1.2347-6.1742-.226-.6281-.4088-1.2682-.5491-1.921-.1828-.366-.3655-.366-.5486 0 .0396-.9394-.3722-1.4881-1.2352-1.6466-.4254-1.3002-.9283-2.5806-1.5091-3.8413-.2338-.4464-.5083-.5374-.823-.2745a25.274 25.274 0 0 1-.8232-2.47c-.6871.288-1.0985.0138-1.2353-.8229l.8235-.6862c-.5923-.2505-1.1865-.479-1.7835-.6862l-.2744-1.6459c-.7273-.4392-1.4134-.9427-2.0585-1.5093.2194-1.2341-.0089-1.2801-.6858-.1377-1.7103-1.5127-3.3562-3.0678-4.9391-4.6646-.1138.1252-.2506.2172-.4115.2741-.3957-.2203-.8072-.4032-1.2351-.5482-.357.0375-.5854.2202-.6858.5482-.4438-.1477-.9012-.2384-1.372-.2741-1.6418-1.4069-3.4708-2.5504-5.4882-3.4303-1.0215-.5397-1.0215-.9972 0-1.372-.3521-.1878-.6728-.1419-.9608.1376l-.6859-.6861c.3083-.0686.583-.2058.8236-.4115l-1.9213-2.0585a1.354 1.354 0 0 0-.8232-.1368c-.2432-.6099-.2432-1.2041 0-1.7838-.2638-.5712-.6293-1.0746-1.0976-1.5091a8.181 8.181 0 0 1 .5493-1.3723c.2603.2266.535.2723.823.1372-.3656-.3659-.3656-.7314 0-1.0977-.2352-.1892-.4178-.4177-.5489-.6857.3142-.8916.5429-1.8063.6857-2.7444.1755.7489.4962.8859.9609.4115-.8012-1.4788-.9839-3.0333-.5492-4.6647-.3161-2.9607-1.1849-5.7501-2.6068-8.3691-.9199-.3956-1.5141-1.0816-1.7835-2.0584-.5534-.6281-1.1936-.7649-1.921-.4114-1.2937-.7372-2.4833-1.606-3.5672-2.6068a33.335 33.335 0 0 0-3.1554-.6861 3.985 3.985 0 0 1-1.235-1.2348A175.419 175.419 0 0 0 72.087.8404z" fill="#5c191a" opacity=".989"/><path d="M70.7145 4.4077c5.695 3.806 7.8445 9.1111 6.4488 15.9158-.6306 2.3057-1.4998 4.5008-2.6069 6.5858-3.1141 4.0254-6.3611 7.9585-9.7415 11.7994-1.4452 2.1589-2.5886 4.4454-3.4301 6.8602-.0164-.1493-.1079-.2405-.2743-.2745-.206.2403-.3436.5144-.4117.8231-.6138-.6697-1.117-1.4015-1.5092-2.1953.4433-1.9099 1.2666-3.6477 2.4696-5.2135l5.7624-8.2324c1.5926-1.7181 3.0558-3.5476 4.3906-5.488.7429-.7537 1.2001-1.6684 1.3723-2.7441.4052-1.0242.634-2.1219.6859-3.2929.8208-4.1182-.1398-7.7309-2.8812-10.839-.4332-.3003-.8907-.5294-1.3723-.6859-1.1356-.9365-2.4618-1.3023-3.979-1.0976-4.8201.2114-6.6495 2.6809-5.488 7.4089.2733.5928.6848 1.0502 1.2349 1.372.7556.3179 1.4869.1808 2.1954-.4117.9045-.6298 1.7277-1.3618 2.4695-2.1952.5326-.2039 1.0356-.158 1.5092.1373.6819 2.9784-.4615 4.8537-3.4301 5.6251-6.1859.7658-8.8843-1.9327-8.095-8.095 2.839-7.1587 7.7323-9.0799 14.6807-5.7625z" fill="#f9f6f4"/><path d="M47.6645 1.1148c-.0361.2402.0552.4232.2744.5488 1.8832-.4962 3.4839.0527 4.8021 1.6464.7295 2.9571.5463 5.8837-.549 8.7808-.7115.8953-1.5804 1.5815-2.6068 2.0583-2.4413.6559-4.82 1.4788-7.1346 2.4699-3.3188 2.3829-5.1026 5.6298-5.3509 9.741-.922 3.6676-3.0714 6.3654-6.4488 8.095-1.7126 1.5291-3.2217 3.2212-4.5275 5.0764a336.978 336.978 0 0 0-6.3113 11.2511c-.824 3.8027-1.4186 7.6447-1.7836 11.5246.3267.725.098 1.2743-.686 1.647-.1829 1.1885-.1829 2.378 0 3.5671.41.3418.8215.3418 1.2346 0-.4584-.9099-.1842-1.459.8236-1.6465.0241 1.3675-.2963 2.6478-.9607 3.8417-.2506-.3165-.4793-.2705-.686.1373.295.2027.4778.4768.549.823a8.589 8.589 0 0 0-1.0975 2.1952c.1394.7443.2312 1.4764.2741 2.1953-.5123 1.3167-.5123 2.689 0 4.1159l-.8233 1.3723c.2515.1028.4803.2396.6862.4114-.0012 1.0087.3644 1.8322 1.0975 2.47l.2746-.549c.3367.9816.5655 1.8959.6861 2.7443.6236 1.9891 1.9958 2.6749 4.1159 2.0579.3924-.1277.7128-.3564.9603-.6859.1693.2605.124.4892-.1372.6859 1.0516-.0103 2.0123.2184 2.8815.6857.6097-.4878 1.2039-.5337 1.7836-.1369l-.5492.2747c.4502.6682 1.0451 1.1715 1.7838 1.5091.8438 3.7997 2.399 7.3666 4.665 10.7017 3.1733 3.9069 6.558 7.6573 10.1533 11.251.5256.7766.3886 1.4626-.4118 2.0573-1.7034.858-3.4413 1.635-5.2139 2.3331.0336.3741.0336.7396 0 1.0977-20.2527-8.2255-33.0126-22.9522-38.2795-44.18-4.3388-25.5022 3.5728-46.2205 23.7362-62.1525 6.862-4.986 14.4537-8.3249 22.7758-10.0161z" fill="#5c1a1b" opacity=".988"/><path d="M69.068.0172c1.0634.1492 2.0697.4232 3.0186.8235l-5.2138.4115a3.978 3.978 0 0 0 1.2352 1.2344l3.1553.6861c1.084 1.0009 2.2736 1.8698 3.5672 2.6068.7274-.3534 1.3676-.2166 1.9206.4116.2699.9773.8641 1.6631 1.7838 2.0584 1.422 2.6188 2.2909 5.4085 2.6068 8.3696-.4345 1.6313-.2518 3.1858.5494 4.6646-.4648.4738-.7854.3371-.9609-.4118-.1428.9385-.3715 1.8527-.6862 2.7445.1311.2683.314.4967.5494.6861-.366.3655-.366.7314 0 1.0976-.288.1344-.5627.0892-.8234-.1377-.2246.4415-.4073.899-.5489 1.3721.4683.435.8338.9379 1.0976 1.5091-.2432.5797-.2432 1.1739 0 1.7838.2889-.0411.5628.0049.823.137l1.9212 2.0583c-.2403.2059-.515.3436-.8236.4115l.6862.6862c.288-.2792.6083-.3248.9608-.1371-1.0216.3742-1.0216.8317 0 1.3717 2.0171.8803 3.8461 2.0236 5.4882 3.4306l-7.1352-3.9791-4.3905-1.5091c-.0896-.6874-.4558-1.1908-1.0977-1.5092-.1537-.4298.0292-.7962.5494-1.0977-1.4379-.4745-1.7124-1.1147-.8234-1.9212-.0261-.8103-.1629-.856-.4117-.1371l-.1372-.5486c1.0104-1.3819 1.9247-2.8456 2.7442-4.3905.3058-.8529.3058-1.7677 0-2.7444.0491-.7057.3236-1.3008.8234-1.7838l-.4117-.4114c.1164-4.7798-1.5761-8.7585-5.0765-11.9365L72.91 5.6427a18.621 18.621 0 0 0-1.5091-1.5091c-.1843.2058-.4128.2977-.6862.274-6.9488-3.3175-11.842-1.3963-14.6807 5.7624-.7897 6.1623 1.9086 8.861 8.0949 8.0949 2.9686-.7712 4.1122-2.6466 3.4297-5.6249-.4732-.2953-.9767-.3413-1.5091-.1373-.7419.8335-1.5648 1.5653-2.4697 2.1953-.7083.5923-1.4394.7294-2.1953.4117.1643-.0647.2551-.2018.2744-.4117-.4973-.7135-.8628-1.4907-1.0976-2.3327l.8232-3.9789c1.4665-1.542 3.1584-1.8618 5.0764-.96 1.0359-.2794 2.0876-.2794 3.1562 0 .4816.1566.9391.3855 1.3721.6859 2.7413 3.108 3.7021 6.7206 2.8809 10.8388-.0516 1.1712-.2806 2.2688-.6857 3.2929.0456-2.9286 0-5.8554-.1377-8.7811-.1004.3873-.3291.6616-.686.8232-.3583-.3875-.5871-.845-.6857-1.3715-.1011.3864-.3298.6609-.6858.823.0559-.2823-.0814-.5566-.412-.823-.2981.6669-.4351.5752-.4116-.2746-.8293.1083-1.104-.1658-.8232-.8231-.0911-.2745-.2744-.4574-.5485-.5492-.0252.4731-.1171 1.0216-.2745 1.6469.5289-.0738.9863.063 1.3721.4116-.2608.1693-.489.1234-.6859-.1375-.1028.2512-.24.48-.4117.6857-.0808.7723-.0808 1.5502 0 2.333-1.5706.3245-1.7533 1.0558-.5492 2.1951-.6188.2525-.8931.71-.8229 1.3718-.6099.0883-1.1134-.0947-1.5091-.5485l-.1376.4115c.2538.3158.2538.5898 0 .8229l.8236.6862a1.005 1.005 0 0 1-.2745.4114c1.0637.4303 1.3834 1.1161.9603 2.0586-.7105-.23-1.2132-.6874-1.5094-1.3724-.3958.9019-.2124 1.6797.5491 2.3325-.6559.1895-.6559.4642 0 .8236-.1719.2058-.3091.4345-.4115.6858l-.2747-.2743a2.312 2.312 0 0 0-.137 1.0977h-.8235a1.353 1.353 0 0 1-.1371.8229c-.4774-.3339-.7516-.7907-.823-1.3723-.3594.6564-.6341.6564-.8234 0l-.8236.5494c-.3227-.4599-.7346-.8259-1.2344-1.0977.2578-.7007-.0167-.9294-.823-.6862.1667.6863.5326 1.2356 1.0976 1.6464.1586.4969.2954 1.0003.4116 1.5093.1149-.3214.2977-.5961.5482-.8235-.1118.4735-.0662.9309.1378 1.3722 1.7416.2915 3.571.4284 5.488.4115 1.17-1.0331 2.222-2.359 3.1553-3.9789.2776-.2295.5978-.3209.9609-.2741-1.3349 1.9403-2.798 3.7698-4.3906 5.4881-.5963.1937-1.1448.4679-1.6467.8234v-.8234h-5.2138c-.0823.7883-.2658 1.5197-.5483 2.1952.1175-1.0777-.2032-1.992-.9608-2.7442-.0496.8769-.1866 1.7004-.4115 2.47.5132-4.3675-.7678-8.0719-3.8418-11.1137-2.525-1.5496-5.2696-2.0984-8.2322-1.6464-5.2911 2.1263-6.6172 5.7397-3.979 10.8391 1.0513.9601 2.286 1.4176 3.7045 1.3716-.3375.4937-.5203 1.042-.5484 1.6471C30.504 40.7465 21.8605 52.8205 19.812 69.7164c-.2624 5.3319-.0334 10.6369.6862 15.9157-.0167.1489-.1077.2402-.2747.2744a2.824 2.824 0 0 1-.4115-1.0975c-.0635.339-.2008.6138-.4114.8231-.12-.8483-.3489-1.7626-.6862-2.7444l-.2744.5491c-.7325-.6378-1.0986-1.4614-1.0977-2.4699-.2059-.1719-.4347-.3086-.6858-.4115l.8235-1.3723c-.5122-1.4268-.5122-2.7992 0-4.1159-.0435-.7188-.1351-1.4509-.2747-2.1952a8.605 8.605 0 0 1 1.0977-2.1953c-.0714-.3461-.2542-.6204-.5489-.8229.2064-.4079.4351-.4538.6859-.1374.6641-1.1938.9848-2.4742.9606-3.8417.5529-3.9924 1.6956-7.8344 3.4298-11.5248 2.6877-4.7401 5.4319-9.4053 8.2327-13.995l1.2344-1.2349c2.0513-.8023 3.9718-1.808 5.7629-3.0182 1.8818-.2953 3.5736-.9815 5.0766-2.0585 1.2161-1.6686.8043-2.7205-1.2353-3.1551-.3403-.9215-.5692-.8758-.6859.1369-1.9598-4.1113-1.2736-7.7246 2.058-10.8391 2.3563-1.7662 5.009-2.3609 7.9582-1.7835.6973-.7302 1.2919-.6386 1.7835.2741.4723-.1264.9756-.1721 1.5094-.137-.456-.7224-.593-1.4996-.4118-2.3322.3174.4093.5461.3633.6858-.1377-.3519-.5497-.6262-1.1449-.8234-1.7836.4966-4.4223 2.4177-8.1266 5.7629-11.1134 1.8322-1.0156 3.7531-1.4728 5.7626-1.372.3657-.2741.3657-.5485 0-.8232L63.8542.703C65.625.4319 67.3627.2034 69.068.0172z" fill="#511212"/><path d="M73.1842 22.2439c-.1723 1.0757-.6293 1.9905-1.3718 2.7444-.3629-.0469-.6834.0448-.9607.2744-.9339 1.6196-1.9859 2.9459-3.1557 3.9788-1.9171.0164-3.7462-.1204-5.4881-.4118-.2038-.4408-.2496-.8982-.1373-1.3716a1.999 1.999 0 0 0-.5485.8231l-.4118-1.5091c-.5649-.4114-.9309-.96-1.0976-1.647.8066-.243 1.0813-.014.8235.6862.4998.2723.9113.6377 1.2344 1.0976l.8231-.5485c.1898.6562.4645.6562.8237 0 .0713.5812.3452 1.0385.8232 1.3717.1321-.2602.1779-.5341.1367-.8232h.8235a2.318 2.318 0 0 1 .1374-1.0976l.2743.2747a2.585 2.585 0 0 1 .4119-.6862c-.6563-.3594-.6563-.6337 0-.8229-.7619-.6535-.9451-1.4305-.5494-2.333.2962.6856.7987 1.1426 1.5093 1.3721.4233-.9415.1039-1.6277-.9599-2.0577.1249-.1136.2166-.2513.274-.4118l-.8234-.6859c.2541-.2331.2541-.5078 0-.8235l.1375-.4116c.3962.4542.8996.6377 1.5094.5494-.0703-.662.2037-1.1194.8231-1.3724-1.2042-1.1388-1.0214-1.8709.5487-2.1952-.0809-.783-.0809-1.5601 0-2.3324.1717-.2058.3093-.4349.4117-.6858.1967.2606.4252.3061.6859.1367-.3853-.3481-.8428-.4853-1.3716-.4114.1573-.6245.2493-1.1739.274-1.6465.2742.0914.4573.2741.5489.5488-.2808.6571-.0062.9319.8229.8229-.0238.8508.1138.942.4115.2748.3304.2662.4683.5409.4117.8229.3567-.1617.5855-.4357.6861-.8229.0991.5271.3278.9846.686 1.3723.3569-.1622.5854-.4369.6862-.8236l.1372 8.7808z" fill="#551110"/><path d="M69.617 7.4262c-1.0685-.2792-2.1202-.2792-3.1557 0-1.9181-.9017-3.6103-.5818-5.0765.9606l-.8232 3.9787a7.64 7.64 0 0 0 1.0975 2.3325c-.0192.2098-.1105.3472-.2743.4115-.5499-.3219-.9615-.7792-1.2349-1.372-1.1615-4.7275.668-7.1974 5.4883-7.4089 1.5168-.2048 2.843.161 3.9788 1.0976z" fill="#3e1011"/><path d="M58.6408 32.3972c-.7848 3.3607-1.7909 6.6536-3.0187 9.8787-1.088 3.6248-1.3626 7.2832-.823 10.9763.5119 2.4874 1.6096 4.6826 3.2929 6.5856-.3353.3055-.7014.3515-1.0976.1371-4.4989-3.4308-6.1909-7.9582-5.0767-13.5831a47.025 47.025 0 0 0 .9609-4.9395c.819-1.9537 1.5048-3.9661 2.0577-6.0368a32.937 32.937 0 0 0 .4117-4.665c.0487-1.0243-.043-2.0308-.2742-3.0183-.4441-2.6857-1.9992-4.3779-4.6652-5.0767-4.6834-1.256-6.6501.4362-5.8996 5.0767 1.2598 1.6954 2.6321 1.7872 4.1158.2745.3086-.9305.7205-1.7994 1.2353-2.6067.885-.0788 1.4343.3328 1.6461 1.2345-.2011 3.3111-1.9389 5.049-5.2135 5.2135-1.4187.0458-2.6539-.4116-3.7045-1.3717-2.6391-5.0993-1.3128-8.7128 3.979-10.8391 2.9627-.4518 5.7063.0969 8.2319 1.6465 3.0739 3.0416 4.3544 6.746 3.8417 11.1135z" fill="#f7f3ed"/><path d="M55.0734 27.7324c-.2107-.2094-.348-.4839-.4116-.8231l.1372 3.8414c-1.5641.1304-3.0275.1304-4.3905 0 .3925-.5174.8499-.9749 1.3721-1.3721l.8232-2.7439h-1.0977c-.212-.9019-.761-1.3136-1.6465-1.2348-.5146.8076-.9259 1.6766-1.2348 2.607-1.484 1.5123-2.856 1.421-4.116-.2745-.7505-4.6407 1.2161-6.3327 5.8997-5.0767 2.6662.6986 4.2213 2.3909 4.6649 5.0767z" fill="#460b0c"/><path d="M51.5059 26.6346h1.0976l-.8229 2.7441a7.116 7.116 0 0 0-1.3724 1.3723c1.3632.1295 2.827.1295 4.3906 0l-.1368-3.8423c.0633.3401.2009.6142.4115.8235.2312.9877.3231 1.9938.2745 3.0188-.3374.2208-.6115.495-.8234.823-1.3467-.403-2.6269-.2203-3.8416.5487l-4.9394 1.3718c.0284-.6039.2112-1.1533.5488-1.6458 3.2748-.1649 5.0126-1.9026 5.2135-5.2141z" fill="#320809"/><path d="M65.7755 31.2998l-5.7627 7.6835c-.5489.3654-1.0977.3654-1.6465 0 .6734-2.0513 1.2217-4.1558 1.6465-6.3118.2831-.6754.4659-1.4068.5487-2.1952h5.214v.8235z" fill="#f4ede8"/><path d="M54.5246 31.5738c.0777.5257-.0133.9828-.2747 1.3723v-1.3723c-1.209.0683-2.398.2514-3.567.5492 1.2144-.7693 2.4948-.9521 3.8417-.5492z" fill="#c4b2b1"/><path d="M54.2499 32.9456c-.4253 2.4313-1.1111 4.8093-2.0576 7.1353-.3577.1598-.6774.3427-.9606.5482-1.2743.3017-2.4639.7591-3.5676 1.3723-2.0815.7661-4.0022 1.818-5.7622 3.1556-5.2904 4.2821-9.4522 9.4497-12.4855 15.5042a40.71 40.71 0 0 0-1.5094 5.7623c-.3186 4.0691-.3645 8.1851-.1371 12.3481a19.024 19.024 0 0 0 .9607 4.3905c-.0579.161-.1492.298-.2745.4115-1.6035.0411-3.158.3159-4.6652.8236-.7237.1792-1.3643.4991-1.9206.9602-.4235.2203-.8803.311-1.3723.2747a86.296 86.296 0 0 1-.686-15.9158c2.0486-16.8958 10.6919-28.9698 25.9316-36.2212l4.9393-1.3724c1.1689-.2977 2.3581-.4804 3.567-.5488v1.3717z" fill="#fbfafa"/><path d="M60.0126 32.6716c-.4241 2.1565-.9735 4.2598-1.6463 6.3111-1.0425.9854-1.9572 2.0831-2.7441 3.2929a76.969 76.969 0 0 0 3.0188-9.8787c.2243-.7697.3618-1.5926.4115-2.4694.7575.7521 1.0776 1.667.9601 2.7441z" fill="#220a0c"/><path d="M105.5641 82.339l-1.0976 4.9393-.8234.2744c-2.1194-.8038-4.3146-1.1701-6.5858-1.0977v-1.0976c1.6806-8.7263.9947-17.233-2.0576-25.5196-.7377-1.6609-1.6068-3.2159-2.607-4.665-1.4964-2.6438-3.371-5.022-5.6255-7.1344-.3094-.5065-.4466-1.0552-.4115-1.6466l-.4115-3.2929c-.1367.8182-.1827 1.6416-.1371 2.4698-.6399 3.2485-2.4696 5.581-5.4881 6.9974-2.4909.8095-4.7776.4893-6.8603-.9607-.9556-1.3063-1.5961-2.77-1.9206-4.3905.0737-1.1217.4394-2.1278 1.0975-3.0184 1.0144-.4651 1.7924-.1907 2.3323.8233.1612 1.1818.5271 2.2793 1.0976 3.2928.4998.4241 1.0947.6072 1.7837.549 3.2937-.0455 4.803-1.6917 4.5274-4.9395-1.8508-3.8738-4.9147-5.2916-9.1925-4.2531-2.2752.72-3.9671 2.1377-5.0765 4.2531-1.2764 2.4575-2.0539 5.0643-2.3323 7.8207.0907 1.6984.4563 3.2991 1.0977 4.8021.4472 1.4245.7214 2.8877.8229 4.3907-.4659.0437-.9234-.0019-1.3719-.1375-.1674-.5344-.3502-1.0378-.5487-1.5093-.6764-1.9832-1.2706-3.9951-1.7838-6.0368-1.029-5.5552.4802-10.2199 4.5279-13.9948 1.3315-1.0316 2.7949-1.7632 4.3904-2.1952 2.4889-.3645 4.9587-.2271 7.4092.4118 1.1125.4289 2.1182 1.0237 3.0185 1.7834 1.1375.9173 1.9146 2.1063 2.332 3.5673-.0935-1.6514-.7795-3.0234-2.0576-4.1161-.0033-.4163-.1861-.7364-.5491-.9605-3.328-2.4608-6.8956-2.9641-10.7017-1.5092-1.9108.361-3.5568 1.2299-4.9394 2.6069-.343.2029-.6171.1572-.8234-.1372a85.535 85.535 0 0 1 5.2138-6.3112c.5191-.3708 1.1138-.554 1.7834-.5489 16.6372 4.5628 27.2472 15.1729 31.8314 31.8311l1.5092 9.8786-1.372 8.781z" fill="#fbfaf9"/><path d="M67.4219 30.4763l-5.7627 8.2323c-.7044.0254-1.1162.3921-1.2348 1.0976-.0638-.3397-.2007-.6136-.4117-.8229l5.7623-7.6835c.5022-.3556 1.0504-.6296 1.6469-.8235z" fill="#321216"/><path d="M55.3481 30.7507a32.968 32.968 0 0 1-.4117 4.6646c-.5528 2.0707-1.239 4.0832-2.0582 6.0375-.3908-.5614-.9391-.8361-1.6465-.8235.2826-.2053.6033-.3882.9603-.5487.9463-2.326 1.6325-4.704 2.0585-7.1347.2604-.389.3522-.8465.274-1.3717.2119-.3279.486-.6026.8236-.8235z" fill="#281417"/><path d="M83.6117 38.7084c.0472.2723-.0444.4549-.2745.5492-.8998-.7599-1.9057-1.3547-3.0184-1.7837-2.4504-.639-4.9202-.7759-7.4091-.4116-1.3897.0075-1.5725-.2671-.5487-.8234 3.8065-1.4552 7.3737-.9518 10.7018 1.5094.363.2239.5457.5438.5489.9601z" fill="#811d18"/><path d="M89.374 37.8853c.4711.0357.9284.1264 1.3721.2741 3.9844 3.6097 7.7347 7.4057 11.2511 11.3878l-1.3724.2747c.6402.3413.823.7985.549 1.3723a3.165 3.165 0 0 1 1.2349.9601c.3509 1.0041.7624 1.965 1.2343 2.8811-.2294.2776-.3207.5978-.274.9608h.8235c.1403 1.1122.3691 2.2098.6859 3.293a20.175 20.175 0 0 1 1.5093 2.7436v1.6469c.577.4465.6681.9948.2741 1.6459a71.353 71.353 0 0 1 .8236 8.3696c-.5482 2.5605-.9597 5.1674-1.2353 7.8206-.2339.2936-.4625.5683-.6859.8235l1.3717-8.7809-1.509-9.8787c-4.5842-16.6582-15.1941-27.2687-31.8313-31.8314-.6697-.0049-1.2643.1779-1.7834.5489.2971-1.7167 1.1208-3.1351 2.4694-4.2533.1779-.3952.2698-.8071.2747-1.2347 1.1073-2.0848 1.9762-4.2801 2.6068-6.5857 1.396-6.8046-.754-12.1101-6.4485-15.9161.2732.0242.5016-.0678.6858-.2741a18.39 18.39 0 0 1 1.5094 1.5094l1.0976.2741c3.5006 3.1778 5.1929 7.1567 5.0764 11.9369l.4118.4115c-.4991.4829-.7738 1.0775-.8234 1.7838.3061.9766.3061 1.8912 0 2.7437-.8193 1.5452-1.734 3.0087-2.7435 4.3905l.1367.5493c.2488-.7194.3861-.6738.4115.1367-.8888.8063-.6148 1.4465.8234 1.921-.5197.3021-.7024.6677-.5487 1.0977.6414.319 1.0078.8224 1.0976 1.5093 1.4205.5704 2.8839 1.073 4.3906 1.5094 2.3489 1.4024 4.7269 2.7284 7.1342 3.9787z" fill="#4a0f12"/><path d="M72.3612 36.2388c-1.0237.5562-.841.8308.5485.8235-1.5952.4318-3.0589 1.1633-4.3905 2.1953.0361-.2408-.0552-.4236-.2742-.5494-.5792.3981-1.2194.6724-1.9212.8234-.7651-.5027-.6742-.7774.2746-.8234.206.2947.4805.3404.8231.1376 1.3828-1.3769 3.0289-2.246 4.9397-2.607z" fill="#5c1b1c"/><path d="M83.6113 38.7085c1.2783 1.0924 1.9642 2.4645 2.0585 4.1164-.4175-1.4611-1.1948-2.6503-2.3326-3.5676.2299-.0939.3213-.2767.2741-.5488z" fill="#aa636c"/><path d="M86.3558 46.3918l-.549-.8234c-.0452-.8278.0007-1.6509.1375-2.4694l.4115 3.2928z" fill="#b78490"/><path d="M73.4585 51.6056c-.8034-.299-1.398-.8483-1.7835-1.6463-.1979.4422-.152.8537.1372 1.2348-.3473.0848-.668.2217-.9607.4115-.2616-.6717-.6731-1.2209-1.2346-1.6463.5047-1.0521.3218-1.3718-.5489-.9604.2488.466.3399.9693.2742 1.5091-.5966.1152-1.1448.1152-1.6458 0l-.2747.5488c.1561 1.8231-.0267 3.6524-.5489 5.4882-.641-1.5028-1.0074-3.1036-1.0976-4.8023.2787-2.756 1.0559-5.363 2.3326-7.8205 1.1088-2.1154 2.8016-3.5332 5.0766-4.2533 4.2769-1.0383 7.3411.3795 9.1927 4.2533.2747 3.248-1.2344 4.8939-4.5282 4.9395-.6889.0583-1.2833-.1251-1.7833-.549-.5708-1.0136-.9363-2.1112-1.0977-3.2929-.5405-1.014-1.3175-1.2882-2.3328-.8229-.6578.8906-1.0238 1.8963-1.0976 3.0182.3255 1.6204.9657 3.0841 1.921 4.3905z" fill="#480e0e"/><path d="M59.1892 43.9222c.3923.7938.8955 1.5254 1.5093 2.1952.0686-.3082.2055-.5826.4118-.8235.1664.0341.2578.1259.2742.2748-.558 4.9835.3568 9.6485 2.7443 13.9945v.8232c-.6471.0679-1.196-.115-1.6467-.5485-1.6665-2.2355-2.9009-4.7052-3.7044-7.4087-.1828-2.47-.1828-4.94 0-7.4094.0579-.4278.1948-.7932.4115-1.0976z" fill="#f7f3e5"/><path d="M61.6594 38.7085c-1.2031 1.5657-2.0264 3.3033-2.4699 5.2141-.2166.3037-.3538.6696-.4115 1.0976-.183 2.4693-.183 4.9388 0 7.4087.8033 2.7036 2.0382 5.1736 3.7044 7.4088-.1087.2814-.2916.3269-.5488.1373-1.2699-1.6404-2.3215-3.424-3.1556-5.3508a1.008 1.008 0 0 1-.4115.2745l-.5491-.8236c-.0645.2054-.1563.4338-.2743.6859-.2742.1832-.5487.1832-.8234 0 .3197-.512.2286-1.0154-.274-1.5091-.0533.484-.0533.9875 0 1.5091l-.412.4117c-.2812-.7517-.6929-1.3919-1.2346-1.9208-.5396-3.6923-.2651-7.3511.823-10.9764a18.074 18.074 0 0 1 2.7444-3.2929c.5485.3661 1.0976.3661 1.6462 0 .2108.2094.3482.4841.4115.8235.1185-.706.5303-1.0716 1.2352-1.0976z" fill="#440810"/><path d="M85.8071 45.5687l.5488.8235a2.768 2.768 0 0 0 .4115 1.6459c2.2545 2.113 4.1291 4.491 5.6254 7.135.1038 1.9438.744 3.6816 1.921 5.2137l1.0976 4.1158c-.1098.4659-.2466.9232-.4117 1.3723-.3751-.2808-.6036-.144-.6859.4115.3219.6919.3219 1.3777 0 2.0582-.6664.3126-1.3521.3126-2.0583 0-2.6304-1.6586-5.4204-2.9846-8.3696-3.9788l-9.3293-1.2353c-2.1178-.7577-4.3131-.9406-6.5858-.5485l-2.1953-1.3723c-.0931-.5912-.0931-1.232 0-1.9206.1985.4713.3813.9742.5485 1.5091a3.543 3.543 0 0 0 1.3721.1371c-.1017-1.5022-.3758-2.966-.8229-4.3906.5216-1.8356.7047-3.6647.5485-5.4879l.2744-.5487c.501.1149 1.05.1149 1.6466 0 .0658-.5398-.0261-1.0432-.2743-1.5091.8702-.4115 1.0529-.0918.5484.9601.5614.4255.9728.9747 1.2352 1.6466.2927-.1899.6126-.3268.9601-.4115-.2893-.3812-.3344-.7926-.1369-1.2351.386.7983.9802 1.3473 1.7838 1.6466 2.0827 1.4498 4.3689 1.7698 6.8599.9606 3.0188-1.4167 4.8483-3.7489 5.4882-6.9976z" fill="#541515"/><path d="M47.6643 42.0014c-.7081 1.0547-1.7139 1.7408-3.0185 2.0579-3.3037 2.0922-6.276 4.6072-8.9178 7.5465-2.3211 3.2382-4.4244 6.6223-6.3114 10.1527l-.2744 2.4697c-.3038-.3328-.4412-.2408-.4115.2747-.1733.6789-.4477 1.3191-.8235 1.9206.361-1.9526.8642-3.8738 1.5094-5.7627 3.033-6.0538 7.1948-11.2222 12.4854-15.5039 1.76-1.3372 3.6805-2.3888 5.7623-3.1555z" fill="#361115"/><path d="M74.5563 26.909c-.005.4278-.0969.8395-.2748 1.235-1.3486 1.1182-2.1722 2.5365-2.4693 4.2531l-5.2141 6.3116c-.9484.0456-1.0395.3197-.274.8231.7012-.1513 1.3414-.426 1.9211-.8231.219.1248.3098.3082.2742.5484-4.0476 3.7747-5.5568 8.4398-4.528 13.9946a76.396 76.396 0 0 0 1.7838 6.0375c-.093.6886-.093 1.3291 0 1.9206l2.1952 1.3723c2.2728-.3921 4.468-.2093 6.5859.5482 2.3949.6185 4.8649 1.0299 7.4087 1.2353.242.194.4248.4227.5493.6858-11.6118-2.2127-23.3201-2.7159-35.1242-1.5094-3.183.5214-6.2929 1.2991-9.3299 2.333v-.8236c2.7682-.9106 5.6037-1.5967 8.507-2.0578l16.3265-.9609c1.1457.0557 1.3748-.2647.6862-.9599l1.0976-.2745c-.1645-.4453-.3473-.8568-.5486-1.2349-2.3875-4.3464-3.3022-9.0115-2.7443-13.995.8411-2.4145 1.9847-4.7006 3.4302-6.8597 3.3807-3.8409 6.6277-7.774 9.7415-11.7997z" fill="#411011"/><path d="M51.2315 40.6293c.7074-.0124 1.2562.2619 1.6469.8232-.2315 1.6602-.5517 3.3065-.9607 4.9393-1.1146 5.6247.5775 10.1524 5.0766 13.5831.396.2143.7621.1685 1.0976-.1371-1.6832-1.9029-2.7809-4.0981-3.2928-6.5858.5416.529.9533 1.1691 1.2345 1.9207l.4118-.4117c-.0533-.522-.0533-1.0253 0-1.509.5028.4933.5939.9966.2743 1.509.2746.1833.5491.1833.8232 0 .1182-.2522.2099-.4807.2745-.6858l.5491.8231c.1607-.0573.2979-.1489.4115-.2744.834 1.9272 1.8857 3.7109 3.1554 5.351.2573.1898.4401.1442.549-.1371.4504.4338.9995.6164 1.6462.5488v-.8234c.2018.3783.3847.7897.5491 1.2349l-1.0976.2745c.6881.6955.4592 1.0157-.6861.9605l-16.3273.9602c-2.9026.4613-5.7385 1.1474-8.5067 2.0581v.8232c-.9295.6973-1.9353 1.3374-3.0183 1.9209l-1.6463.2744c-1.0805 1.6438-2.0412 3.3815-2.8812 5.2137-.6547-.7293-1.2039-.6379-1.6469.2745-.4913-3.013-.5367-6.0316-.1369-9.0554-.0292-.5157.1078-.6071.4117-.2745l.2744-2.4697a91.273 91.273 0 0 1 6.3113-10.1531c2.6417-2.9387 5.6144-5.4543 8.9179-7.5462 1.3045-.3174 2.3108-1.0033 3.0187-2.0578 1.1037-.6132 2.2928-1.0706 3.5671-1.3721z" fill="#511010"/><path d="M44.9205 48.038c.0646-.1634.2015-.2552.4116-.2741.5717.3479 1.1665.6226 1.7836.8235v1.3717c.3225-.0598.5968.0311.8234.2742.3449.5979.7564 1.1472 1.2346 1.647.0149.9222.2893 1.7451.8231 2.4693l.6861-.8234c.07.5058.116 1.0548.1374 1.6469l3.0185 2.4694c.1237.7268.3528 1.413.686 2.058-.2405.4349-.6062.7092-1.0976.823.2501.6829-.0242 1.1403-.8232 1.3723-7.3095-.0484-13.941 1.8274-19.8947 5.6252l-.2743-.8232c-2.3234 2.407-3.1009 2.0407-2.3326-1.0976-.0138-.4391-.1052-.8508-.2744-1.2344.6823-.8612 1.1853-1.8213 1.5093-2.8815l3.8418-3.8418c.7983-1.8726 1.8044-3.6105 3.0184-5.214 1.2054-.6537 2.2571-1.5228 3.1559-2.6067.7575-.6093 1.5806-.9754 2.4695-1.0976-.382.6112-.9308.9318-1.6465.9609-.041.288.0047.5627.137.8229.6434-.4901 1.3296-.8556 2.0583-1.0976-.0411-.2888.0047-.5628.1371-.823l.2744.2741c.1027-.2511.2397-.4799.4115-.6859-.0623-.1098-.1538-.1551-.2742-.1376z" fill="#591514"/><path d="M82.514 65.0514c2.444.7163 4.8221 1.6767 7.1346 2.8814 1.2526.8409 2.2591 1.8927 3.0183 3.1557.0556.683-.0816 1.3233-.4116 1.921-1.5881 1.3627-3.2801 2.5521-5.0768 3.567-.5582-.2996-.9245-.8484-1.0975-1.6464-.9709-1.7943-2.4343-2.9833-4.3905-3.5671-4.5177-1.4885-9.1822-2.3118-13.9947-2.4698-6.5038-.8412-12.9985-.7039-19.4827.4117-3.7068.9659-6.8628 2.8411-9.4671 5.6252-.2049.6663.0238 1.1235.6861 1.3722v.8231c-1.2904.0174-2.5714-.0744-3.8415-.2745-.3516-.3924-.8091-.5756-1.3722-.5486-.7947-.247-1.5262-.6128-2.1952-1.0977v-1.3722c-.0063-2.5486.9999-4.5609 3.0184-6.0368 1.0829-.5834 2.0888-1.2236 3.0183-1.9208 3.0371-1.034 6.1469-1.811 9.3301-2.3325 11.8041-1.2066 23.512-.7032 35.124 1.5091z" fill="#fbfafa"/><path d="M67.6961 68.8933c.1145.1981.2972.3353.5489.4116-3.0654.133-6.1295.0872-9.1925-.1371l-6.8605.823c-1.2107-.1236-2.3998-.307-3.5671-.5489-.1373.5032-.4574.8235-.9603.9606-1.3449-.0137-2.3513.5349-3.0184 1.6462-.6849.2964-1.3257.6628-1.9214 1.0976-.5241.9666-.8448 2.0183-.9599 3.1559-.1148.3446-.3435.5276-.686.5488-.5705-.1291-1.1195-.3119-1.6468-.5488-.6623-.2487-.891-.7058-.6858-1.3722 2.6045-2.7838 5.7598-4.6594 9.4667-5.6251 6.4849-1.1159 12.9791-1.253 19.4831-.4116z" fill="#3f0d0e"/><path d="M67.696 68.8932c4.8125.1579 9.477.981 13.9946 2.4694.2529.4854.5734.9427.9609 1.3723 1.1505 3.8641-.2215 5.1445-4.1162 3.8416-.4535.0879-.7282.3626-.8236.8237a9.558 9.558 0 0 1-1.646-.8237l-.4115.2743c.2399.2062.5143.3436.8229.4116-1.0262.1378-2.0331.1378-3.0182 0 .4296.7525 1.07 1.0725 1.9206.9607-1.3084.3812-2.6806.5639-4.1158.5487-.4056.0721-.7718-.0197-1.0977-.2742.2263-.243.5007-.335.8229-.2745.1283-.4671.1283-.8786 0-1.2348-.3473-.0848-.6676-.2223-.9605-.4118-.9527.7802-1.6389.5517-2.0576-.6857.2631-.3894.4915-.8009.686-1.2353.2325.5506.5528.7334.9598.5494a1.221 1.221 0 0 0-.5482-.4119 1.222 1.222 0 0 0 .5482-.4117c-.8233-.3648-1.2351-1.0052-1.2344-1.9211-.3938 1.1715-.8507 1.2634-1.3723.2747l-.2743.8229a2.005 2.005 0 0 0-.5487-.8229c-.288.2793-.6082.3248-.9607.137-.1771-.4414-.4055-.853-.6859-1.2346a1.222 1.222 0 0 1-.4117.5487c-.4414-.3805-.9441-.6552-1.5093-.8234-.599.9881-1.3312 1.0795-2.1952.2747-.1392.4102-.0015.7309.4117.9606-.7494.0421-1.4812-.0953-2.1953-.4119-.2173.2345-.1261.4634.2745.6859l-.4115.4117-.5489-1.0976c-.1833.3662-.366.3662-.5487 0-.0726.4566.0641.8683.4114 1.2351-.8152.1293-1.5466.449-2.1952.9602.1077-.3345-.0755-.5633-.5486-.6858-.9218-.1026-1.0132.1262-.2744.6858a7.864 7.864 0 0 0-.4114 1.0976c-.0872-.4942-.2701-.5855-.5494-.274-.0848-.3475-.2215-.668-.4115-.9609l.2747-.2745c-.2747-.1829-.5491-.1829-.8231 0-.1221.4168.0611.7368.5484.9607-.3679.6402-.185 1.0976.5493 1.3722-.2667.4007-.1754.7667.2741 1.0978 1.2707.8435 2.6426 1.1182 4.1162.8229.7216.3358 1.4998.5192 2.3324.5487 2.3543.2418 4.687.3335 6.9972.2742-3.1525.2735-6.3535.3643-9.604.2747-1.2876-.0109-2.568-.1027-3.8418-.2747-4.4552-.3122-8.8457-1.0441-13.1715-2.1952.3431-.0206.5718-.204.6858-.5484.1159-1.1374.4358-2.1891.9607-3.156.5954-.4352 1.2355-.8012 1.9205-1.0977.668-1.1109 1.6737-1.6603 3.0187-1.6461.5029-.1377.8235-.4574.9604-.9606 1.1669.2421 2.3562.4248 3.5676.5488 2.3296-.1942 4.6164-.4689 6.8599-.8235a78.704 78.704 0 0 0 9.1928.1376c-.2514-.0761-.4341-.2138-.5491-.4117z" fill="#521114"/><path d="M71.2636 78.772c-1.1348.27-2.3237.3615-3.5674.2741-2.3104.0588-4.6431-.032-6.9973-.2741-.8326-.0301-1.6107-.2129-2.3325-.5493-1.4735.2953-2.8456.0211-4.1165-.8229-.4491-.3304-.5407-.6966-.2741-1.0976-.7339-.2743-.9167-.7317-.5489-1.3724-.4873-.2235-.6704-.5434-.5486-.96.274-.1833.5486-.1833.8233 0l-.2747.274c.1899.2927.3268.6134.4116.9607.2791-.311.4622-.22.5491.2747.1103-.3766.2472-.7428.4116-1.0976-.739-.56-.6474-.789.2744-.6862.4728.1226.6561.3518.5486.6862.6484-.5113 1.3799-.8314 2.1954-.9609-.3474-.3667-.4842-.7781-.4116-1.2344.1828.3655.3656.3655.5487 0l.5489 1.0977.4115-.4118c-.4005-.2224-.492-.4515-.2746-.6859.714.3162 1.4459.4538 2.1953.4115-.4133-.2299-.5507-.5501-.4115-.9609.8639.8049 1.5959.714 2.1952-.2741.565.1676 1.0678.4423 1.5092.8235.19-.1441.3274-.3275.4115-.5494.2803.3822.5088.7939.6861 1.2353.3524.1879.6728.1419.9608-.1377.2506.2276.4333.5023.5485.8235l.2744-.8235c.5214.9888.9784.8974 1.3723-.2741-.0009.9155.411 1.5557 1.2345 1.9212a1.224 1.224 0 0 1-.5485.4115c.2217.0845.4045.2214.5485.4114-.4072.1843-.7274.0014-.9601-.5489-.1944.434-.4228.8454-.6859 1.2351.4188 1.238 1.105 1.4663 2.0576.6862.2928.1891.6134.3267.9607.4114.128.3561.128.7678 0 1.2344-.3225-.0598-.5966.0315-.8231.2747.3258.2551.6919.3461 1.0976.2746z" fill="#59141a"/><path d="M92.3925 55.1729c1.0008 1.4492 1.8697 3.0043 2.6067 4.6646 3.0523 8.2874 3.7382 16.7937 2.0585 25.5204-.1985.1145-.3352.2974-.4115.5482l-.2747-4.3905-.2747 1.3723c-.3255-1.1131-.737-2.2108-1.2344-3.2929l-.4114-.2746c-.3728.4634-.8302.8296-1.3724 1.0977l-.1371-.2741c.044-1.5511.044-3.1061 0-4.6649.0878-1.5163-.0032-2.9803-.2743-4.3905-.7596-1.2631-1.7657-2.3151-3.0185-3.1561-2.3124-1.2042-4.6904-2.1651-7.1349-2.881-.1242-.2631-.307-.4918-.5484-.6859-2.5448-.2053-5.014-.6167-7.4092-1.2351 3.0816.4553 6.1915.8671 9.3299 1.2351a39.001 39.001 0 0 1 8.3696 3.9788c.7056.313 1.3917.313 2.0576 0 .3217-.6805.3217-1.3664 0-2.0578.0824-.5555.3107-.6928.6859-.4116.1652-.4494.3025-.9064.4117-1.3722l-1.0976-4.1158c-1.1766-1.5321-1.8168-3.2699-1.9208-5.2141z" fill="#4c0e13"/><path d="M81.6909 71.3628c1.9556.5839 3.4193 1.773 4.3905 3.567.1148 1.0299-.3426 1.6241-1.3723 1.7838-3.0727.7685-6.182 1.2719-9.3293 1.5091-.8508.1125-1.491-.2081-1.9212-.9601.9857.1376 1.9918.1376 3.0188 0a1.865 1.865 0 0 1-.8236-.4117l.4118-.274c.5196.3256 1.0689.6002 1.6462.8229.0956-.4611.3698-.7358.8231-.8229 3.8951 1.3022 5.2666.0218 4.1164-3.8424-.3877-.4294-.7075-.8861-.9604-1.3717z" fill="#410e0e"/><path d="M34.2182 76.3022c.5637-.027 1.0211.156 1.3723.5486.0304.1693.1218.3066.2745.4116l3.567.2743c1.7932.6994 3.6221 1.2482 5.488 1.6467 4.7308.6658 9.3042 1.3973 13.7207 2.1953 1.0936.1369 2.1913.1827 3.2929.137 1.2298.2266 2.5102.3641 3.8415.4117-.6211.0647-1.2161.2019-1.7838.4114-.9124-.2648-1.8724-.356-2.8813-.2742-.4096.0574-.7301.2402-.96.5488-1.3356-.7198-2.6621-.8115-3.9791-.2746-.609-.3023-1.204-.3023-1.7837 0-.364-.0698-.6381-.2528-.823-.5485l-.2747.2743c-.9356-.2175-1.8964-.3548-2.8814-.4116-.4283-.0874-.7482-.316-.96-.6861l-.8235.5488c-.7725.173-1.5043-.0098-2.1953-.5488l-.2741.2745c-.1253-.3416.0121-.5699.4116-.6861l-.5491-.1372c-.5484.3657-1.0977.3657-1.6461 0-.3219.115-.5964.2977-.8234.5488-.4119-.3436-.8695-.6179-1.3718-.8233-1.4495.7421-2.9588 1.3827-4.528 1.921-1.0049-.7795-1.782-.6422-2.3325.4116a.999.999 0 0 1 .2746.4118c-.2513.2269-.4341.5013-.549.823.3505 1.6895.808 3.336 1.3722 4.9393-.8894-1.2169-1.6213-2.5433-2.1955-3.9788-.3146-1.4955-.8177-2.9136-1.5091-4.2534-.1367-1.3689-.1827-2.741-.137-4.1159h1.6461z" fill="#fee39f"/><path d="M86.9046 77.1254h.823a15.095 15.095 0 0 1 1.9209.5488c.2054 1.181.1596 2.3696-.1371 3.5676a55.148 55.148 0 0 1-1.9206 7.9573c-1.2232 1.2571-2.0924 2.7204-2.6069 4.3905-.289-.0405-.5636.0046-.8236.1377-.1726.5191-.4469.9766-.8233 1.3717l-5.6249 3.1556-1.0976 1.0976c-.1541-.1428-.3374-.2348-.5493-.2746-3.5032 1.3819-7.07 2.4796-10.7018 3.293-2.8923-.0619-5.8648-.0619-8.9178 0-3.253-.7226-6.455-1.5456-9.6042-2.4693-1.9083-1.3527-3.7834-2.8158-5.6258-4.3906-1.9897-2.032-3.5901-4.3188-4.8022-6.8601-.5639-1.6035-1.0214-3.2498-1.3717-4.9395.115-.3212.2978-.5959.5488-.8234a.995.995 0 0 0-.2747-.4115c.5506-1.054 1.3276-1.1908 2.3329-.4114 1.5691-.5386 3.0785-1.1788 4.5276-1.9206a5.19 5.19 0 0 1 1.3724.8229c.2266-.251.501-.434.8229-.5489.5487.3662 1.0976.3662 1.6461 0l.5492.1375c-.3994.1161-.5371.3447-.4115.6861l.2743-.2747c.6908.5387 1.4224.7214 2.1951.5487l.8235-.5487c.2118.3703.5317.5991.96.6862.9848.0569 1.9457.1936 2.8811.4115l.2747-.2748c.1852.2963.4596.4793.823.5495.5799-.3026 1.175-.3026 1.7838 0 1.3172-.5374 2.6439-.4455 3.979.274.23-.3081.5507-.4916.9605-.5487 1.0085-.0821 1.9688.0096 2.881.2747.5681-.21 1.1626-.3474 1.7835-.4118-1.3311-.0481-2.6116-.1849-3.8411-.4119 4.7581.3662 9.4684.1835 14.1314-.5487.3145.1126.6341.2044.9607.2747l8.2321-2.0585c.7531-.5361 1.3017-1.2223 1.6466-2.0579z" fill="#fedd9a"/><path d="M39.4322 76.3022a8.729 8.729 0 0 0 1.6464.5488c4.3258 1.1509 8.7163 1.8831 13.1713 2.1953a16.738 16.738 0 0 0-3.0184.1369c8.8646 2.2012 17.8284 2.6586 26.8918 1.3722 2.574-.6139 5.0437-1.4376 7.4094-2.4697.3318-.2847.6065-.6054.8231-.96h.5486c-.3445.8355-.8935 1.5212-1.6462 2.0575l-8.2325 2.0584a7.485 7.485 0 0 1-.9601-.2748c-4.6636.7322-9.374.9149-14.1324.5495-1.1013.0449-2.199-.0006-3.2928-.1378-4.4161-.7977-8.9894-1.5293-13.72-2.1953a35.437 35.437 0 0 1-5.4882-1.646l-3.5676-.2747c-.1525-.1053-.2433-.2421-.2741-.4115a22.756 22.756 0 0 0 3.8417.2747v-.8235z" fill="#fae7aa"/><path d="M86.0816 74.9301c.173.7981.5385 1.3466 1.0976 1.6465l-.2747.5487h-.5487a35.941 35.941 0 0 1-4.9395.9603c-.443.1691-.8093.443-1.0976.8232l-4.9391 1.0976a149.359 149.359 0 0 1-13.583-.1369c-1.3406-.0021-2.5759-.1852-3.7047-.549 3.2502.0903 6.4521-.0015 9.6044-.274 1.2431.0872 2.4327-.0046 3.5671-.2747 1.4355.0157 2.8071-.1677 4.1162-.5489a55.637 55.637 0 0 0 9.3296-1.5093c1.0297-.1596 1.487-.7542 1.3724-1.7835z" fill="#f4f1d4"/><path d="M86.3554 77.1254c-.2166.3552-.4911.6753-.8229.9603-2.3656 1.0323-4.8347 1.8554-7.4087 2.47-9.0636 1.2861-18.0278.8287-26.8921-1.3724 1.0023-.1367 2.0083-.1827 3.0188-.1367 1.2731.1718 2.5535.2629 3.8411.274 1.1291.3637 2.3638.5468 3.7044.5489 4.5267.2517 9.0546.2972 13.5832.1369l4.9398-1.0975a2.438 2.438 0 0 1 1.0977-.8232c1.6761-.2062 3.3224-.5264 4.9387-.9603z" fill="#fcf0c2"/><path d="M28.7301 64.5027c-.3993 3.0237-.354 6.0424.1377 9.0552.4428-.9125.9914-1.0033 1.6461-.2742.8401-1.8323 1.8008-3.5702 2.8815-5.214l1.6463-.2742c-2.0186 1.4759-3.0247 3.4885-3.0187 6.0371-.5155 6.0449.6281 11.8069 3.4303 17.2874.7159 1.1642 1.494 2.2619 2.3326 3.2929 4.9003 6.339 11.3947 9.7227 19.4827 10.1535l1.3724.5482c-3.6027.3473-7.0784-.1101-10.4281-1.3719-2.3091-1.1102-4.5044-2.4366-6.5856-3.9786-1.6815-2.1401-3.465-4.1978-5.3505-6.1741-.3147.2626-.5893.1712-.8235-.2747-.6735-1.3225-1.2227-2.6941-1.6465-4.1158-.9031-.9991-1.589-2.1423-2.058-3.4303-.6528-.1401-1.293-.3235-1.921-.5488-.1719-.2057-.3086-.4344-.4115-.6862-2.3151.403-4.6471.7685-6.9973 1.0977-.2516-.0119-.4344-.1029-.5488-.2745.5561-.4609 1.1964-.7808 1.9212-.9599 1.5066-.5083 3.0617-.783 4.6645-.8236.1254-.1134.2173-.2511.2742-.4118a19.054 19.054 0 0 1-.9601-4.3905c-.2271-4.1633-.1811-8.2791.1372-12.3477.3755-.6015.6499-1.2418.8229-1.9212z" fill="#4a0e11"/><path d="M110.5032 71.637c.3918 3.9121-.3862 7.5709-2.3321 10.9763-1.0134.7782-1.5164 1.7382-1.5091 2.8815-.5725 1.1145-1.1207 2.2582-1.647 3.43l-.5483.2743a246.629 246.629 0 0 1-8.7811-2.7437c.1537.4299-.029.7953-.5491 1.0977-.3936-.472-.6222-1.0212-.6858-1.6469-.9228.6607-1.655 1.4837-2.1952 2.47-.9138 2.3752-1.6914 4.7076-2.3328 6.9973-1.7148.7089-2.9957 1.8975-3.8411 3.5674a27.204 27.204 0 0 1-5.214 2.4693 9.692 9.692 0 0 1-3.1556 2.6071l-3.1561-.1374c-.8859.098-1.2974.6014-1.2345 1.509-.7729-.1726-1.5042.01-2.1952.5495l-.2747-.2747a1.917 1.917 0 0 1-.9601.6861c-1.0761.0557-2.1283.1925-3.1558.4115l-.2747-.5488c-1.457.9339-2.9661 1.0256-4.5273.2741a22.195 22.195 0 0 0-2.0583 1.0976c-.4407-.6813-.8522-.6813-1.2346 0-.4647-.4187-.9681-.7842-1.5091-1.0976-1.2807.7128-2.4699.53-3.5676-.5482.0212.3393-.0242.6135-.1367.8229-1.4063-1.088-2.9613-1.866-4.6653-2.3323-.242-.1946-.4248-.4233-.5488-.6859 3.3492 1.2612 6.8248 1.7188 10.4275 1.3718 10.6391 1.2918 19.7405-1.7264 27.3031-9.0552.5408-.952 1.135-1.8662 1.7837-2.7446-.0339-.1659-.125-.2579-.2743-.2741 1.4135-2.0038 2.4655-4.1991 3.1557-6.5856.8943-3.6714 1.6722-7.3298 2.3323-10.9761a81.502 81.502 0 0 1 0 4.6644l.1377.2744c.5419-.2684.9993-.6342 1.3718-1.0977l.4119.2747c.4975 1.0819.9089 2.1796 1.2345 3.2929l.2747-1.3723.2742 4.3905c.0763-.2513.2135-.4339.4117-.5484v1.0976c2.2706-.0724 4.4658.2931 6.5856 1.0977l.8234-.2745c.3231-1.6898.6886-3.3365 1.0976-4.9397.2238-.2544.4521-.5291.6862-.8232.275-2.6532.6867-5.2603 1.2344-7.8202-.1099-2.8088-.384-5.5983-.8229-8.3696.3938-.6511.3025-1.2-.2748-1.6463V62.033c-.4284-.9488-.9318-1.8633-1.5091-2.7439a21.167 21.167 0 0 1-.6861-3.2929h-.8229c-.0472-.3627.0447-.6834.2742-.9605-.4719-.9169-.8836-1.877-1.2351-2.8814-.3328-.4248-.7443-.7448-1.2344-.9603.2744-.574.0911-1.0308-.5491-1.3718l1.372-.2747c-3.5156-3.9827-7.2659-7.7787-11.2507-11.3878.1005-.3279.3289-.5107.6859-.5488.4283.145.8398.3285 1.2354.5488a.996.996 0 0 0 .4116-.2747 103.49 103.49 0 0 0 4.9387 4.6653c.677-1.1425.9053-1.0965.6862.1369.645.5674 1.3312 1.0706 2.0585 1.5094l.2741 1.6466c.5971.2069 1.1915.4356 1.7836.6861l-.8233.686c.1368.8364.5482 1.1112 1.235.8231.233.8399.5072 1.6628.8235 2.4699.3147-.2633.5888-.1717.8229.2741.5804 1.2607 1.0835 2.541 1.5091 3.8418.8629.1586 1.2744.7068 1.2349 1.6461.1834-.3657.3661-.3657.549 0a15.01 15.01 0 0 0 .5485 1.9212c.0263 2.2368.4379 4.2951 1.2353 6.174a3.146 3.146 0 0 1-.2747.6858 102.607 102.607 0 0 1 .823 6.5857z" fill="#521213"/><path d="M110.5037 71.6373c.5325 4.8599.2127 9.7075-.9609 14.5434-.8955 2.8172-2.7706 4.6007-5.6249 5.3514-2.8733.3981-5.6177 1.2211-8.2325 2.4693-3.021 3.204-6.2226 6.2222-9.6044 9.0552-.9899.9984-2.1795 1.6386-3.5669 1.9209-.6616.5588-.4787.8332.5487.8236-1.3671-.3447-2.3731.1587-3.0182 1.5093l-.5494-.2747c-.5615.4157-1.2017.6447-1.9206.6862a2.424 2.424 0 0 0-.9604.9603c-.3659-.1834-.6401-.4575-.8234-.8236-.1428.8227-.5542 1.4628-1.2343 1.9211-.7552-.2304-1.3494.0437-1.7839.8236l-.2747-.5494c-.4247.7987-1.0199 1.4389-1.7834 1.9211-.4046.7534-.2218 1.3476.549 1.7834 1.7089.9668 3.4466 1.8816 5.2135 2.7446.3658.1827.3658.3655 0 .5482.8341.5579 1.7033.6946 2.6067.4117.0763.2515.214.4342.4115.5492-.3679.3546-.8253.5833-1.3715.6861-3.0057.8048-6.0239 1.491-9.0554 2.0577-.42-.5982-1.0151-.8726-1.7838-.8233-.6441-.0665-1.1473.1625-1.5091.6862-4.0239.1371-8.0485.1827-12.074.1371-4.8866-.5812-9.6427-1.6789-14.2693-3.293.0339-.3573.0339-.7227 0-1.0976 1.7728-.6973 3.5105-1.4751 5.2137-2.3323.8009-.5954.9377-1.2813.4117-2.058-3.5951-3.5936-6.9796-7.3439-10.1527-11.2504-2.2666-3.3352-3.8217-6.9025-4.6652-10.702-.7391-.3373-1.3336-.8407-1.7838-1.5094l.5492-.274c-.5795-.397-1.1739-.351-1.7836.1367-.8695-.4677-1.8298-.6962-2.8814-.6861.2611-.1969.3061-.4252.1369-.6859-.2474.3301-.5678.5588-.9599.6859-2.1202.6171-3.4926-.0688-4.1164-2.0577.211-.2092.3479-.4837.4117-.8233.0597.3946.1974.7607.4118 1.0974.1661-.0341.2578-.1249.2741-.2741.492.0367.949-.0547 1.3718-.2744.1149.171.2977.2626.5494.2744 2.3498-.3288 4.6822-.6948 6.9973-1.0974a2.594 2.594 0 0 0 .4114.6857c.6281.2257 1.2683.4084 1.9206.5488.4688 1.2876 1.1548 2.4313 2.0585 3.4299.4236 1.4217.9726 2.7941 1.6459 4.1164.2347.4457.5086.5373.8234.274 1.8855 1.9764 3.6689 4.0346 5.3509 6.1742 2.0815 1.543 4.2768 2.8692 6.5858 3.9791.1247.2626.3074.4916.549.6862 1.7042.4668 3.2591 1.2441 4.6645 2.332.113-.209.1585-.483.1377-.8229 1.0976 1.0783 2.2863 1.261 3.5668.5488.542.3128 1.0451.6783 1.5094 1.0976.3827-.6819.7944-.6819 1.2351 0a22.063 22.063 0 0 1 2.0577-1.0976c1.5611.7509 3.0706.6597 4.5281-.2741l.2742.5482c1.028-.2184 2.0797-.3558 3.1555-.4114.393-.1273.7128-.3562.9609-.6862l.2742.2747c.6907-.5387 1.4225-.7215 2.195-.5489-.0626-.9082.3493-1.4116 1.2352-1.5093l3.1553.1376c1.2376-.6447 2.2893-1.5139 3.1558-2.6069a27.169 27.169 0 0 0 5.2134-2.4698c.8459-1.6697 2.1265-2.8584 3.8423-3.5676.6412-2.2897 1.4184-4.6217 2.3321-6.9973.5406-.9863 1.2719-1.8092 2.1952-2.4697.0642.6257.2929 1.1748.6862 1.6468.5194-.3025.7028-.668.5486-1.0976a245.811 245.811 0 0 0 8.7809 2.7437l.5492-.2741c.5254-1.1723 1.0747-2.3158 1.646-3.4305-.007-1.1427.496-2.1033 1.5094-2.8812 1.9467-3.4057 2.7237-7.0641 2.3328-10.976z" fill="#5b1616" opacity=".997"/><path d="M48.7624 86.4552c.6595.1003 1.2997.2837 1.9205.5488 1.0408-.4962 1.9097-.3134 2.6068.5488 1.3256-.118 2.6516.0648 3.979.5489.6169-.2409 1.2114-.1499 1.7838.2747.3619-.0823.7734-.1283 1.2344-.1377.2602-1.7465.9464-1.7914 2.0585-.137.5543-.3531 1.1493-.6271 1.7835-.823.3826.6814.7942.6814 1.2347 0 .259.111.4423.2941.5487.5482l.2743-.2741 2.0585.5489c.7152.1464 1.4014-.0364 2.0575-.5489.7828.3746 1.5145.2826 2.1954-.2741l.4118.2741c-.4584.5513-.6418 1.1915-.5489 1.9212-1.3828-.0137-1.428.1694-.1369.5482 1.2899-1.1607 1.5182-.9781.6858.5494.2039.5071.4781.6898.8235.5482a1.982 1.982 0 0 1-.5495.6862c.3147.7019.0402 1.0674-.8229 1.0977.6692.1875 1.2634.0499 1.7838-.4115.5587.1246 1.0617.3534 1.5091.6862-1.4389-.3534-2.2618.2408-2.47 1.7838-.4162.4623-.8736.8737-1.3717 1.2344.2608.1972.3068.4259.1374.6861h-1.0977c-.6109.9815-1.48 1.4849-2.6067 1.5091.7503-.1972.933-.6087.5482-1.2345-.3821.3741-.8388.6026-1.3715.6859.6065.6999.3775 1.1114-.6859 1.2348-.5191-.0787-.8845-.3526-1.0976-.8231.1039.4322.0581.8437-.1377 1.2346 2.1333.4635 2.1333.7842 0 .9605v.8233c-.8551-.1021-1.6786-.1021-2.4693 0-.3285-.0953-.3285-.2324 0-.4115-.4426-.1977-.8541-.1525-1.2353.1368-.1888-.2348-.4175-.4176-.6859-.5486-.9369.9467-1.9889 1.0375-3.1552.2741a13.742 13.742 0 0 0-1.5093.2745 10.998 10.998 0 0 1-1.6468-.823 2.822 2.822 0 0 0-.823.2744c-1.1956-.4147-2.2025-1.1005-3.0183-2.0582-.7272-.1239-1.4133-.353-2.0584-.6861-.3273.5336-.739.4877-1.2345-.1368l.8231-.2747c-.5217-.0545-.9337-.2832-1.2347-.6862l-.5491.5493c-.8665-.6134-1.4159-1.4366-1.6462-2.4698.0209.3399-.0248.6139-.1377.8229-.6982-.6021-1.43-.9222-2.1952-.9601-.3655-.2743-.3655-.549 0-.8235-.9475-.8294-1.5878-1.7443-1.9206-2.7437l.5488-.2747a2.814 2.814 0 0 1-1.0976-.4115c.02-1.5466.6142-1.7299 1.7835-.5489-.0717-.3982-.026-.7641.1377-1.0976.4225-.3418.8344-.3418 1.2343 0 .1253-.3414-.0121-.5698-.4114-.6858 1.1813-.56 2.3247-.6968 3.4298-.4118.8324-.3152 1.6104-.6807 2.3331-1.0976z" fill="#fed997"/><path d="M92.6668 71.0884c.2711 1.4105.3631 2.874.2747 4.3904-.6607 3.6465-1.4381 7.3054-2.3324 10.9762-.6906 2.3864-1.7422 4.5817-3.1557 6.5856-1.7512 2.7579-4.0375 4.953-6.8604 6.5857-1.3166.5361-2.6883.9476-4.116 1.2354-.8036.9053-1.81 1.4536-3.0182 1.646a49.194 49.194 0 0 0-7.9581.8233c-4.1401.2829-8.2559.1001-12.3482-.5485-.7993-.3381-1.5303-.75-2.1952-1.2349 1.9548.6336 3.9673 1.0454 6.037 1.2349 4.8001.3751 9.5568.1004 14.2692-.8231 1.9233-.9729 3.9356-1.5215 6.0365-1.6469 1.6115-1.238 3.2577-2.4275 4.9399-3.5672 2.2703-2.1616 4.1454-4.4938 5.6249-6.9975l1.7838-6.8597h.823c-.086-1.2814.0968-2.5158.5494-3.7046-.0787-.5188-.3532-.8842-.8237-1.0975.3372-.4355.2452-.8021-.274-1.0978-.7868-.2198-1.5187-.1738-2.1952.1372h-.8236l.2741-.5489c1.7967-1.0147 3.4888-2.2043 5.0768-3.5669.33-.5979.4671-1.2381.4114-1.9212z" fill="#fbedbe"/><path d="M87.7278 77.1256c.6765-.3114 1.4087-.357 2.1953-.1377.5196.2965.6111.6623.2746 1.0977.4705.2133.7445.5794.823 1.0976-.4526 1.1889-.6353 2.424-.549 3.7045h-.8233l-1.7837 6.8604c-1.479 2.5034-3.3548 4.8359-5.6251 6.9972l-4.9392 3.5677c-2.1015.1247-4.1133.6739-6.0371 1.6459-4.7125.9245-9.4686 1.1986-14.2693.8237-2.0694-.1896-4.0819-.6011-6.0364-1.2352-.4666.0441-.924-.0013-1.3723-.1368-.9464-.4804-1.8613-.9836-2.7441-1.5092 3.1495.9235 6.3511 1.7467 9.6044 2.4693 3.0529-.0617 6.0257-.0617 8.918 0 3.6313-.8136 7.1982-1.9113 10.7017-3.2928.2118.0395.3949.1314.5492.2743l1.0977-1.0977 5.6251-3.1555a3.63 3.63 0 0 0 .8229-1.3718c.2602-.1329.5349-.1779.8234-.1375.515-1.6699 1.384-3.1336 2.6071-4.3903a55.233 55.233 0 0 0 1.9209-7.9577c.2965-1.198.3425-2.3865.1368-3.5676a15.087 15.087 0 0 0-1.9206-.5485z" fill="#fde2a8"/><path d="M32.0233 73.8325v1.3717c.6689.4853 1.4008.8508 2.1953 1.0977h-1.6465c-.0455 1.3752.0003 2.7471.1372 4.1163.6914 1.3402 1.1945 2.7575 1.5093 4.2533.5739 1.4353 1.3057 2.7616 2.1951 3.9791 1.2117 2.5414 2.8125 4.828 4.8021 6.8601l5.6254 4.3905 2.7441 1.5094c.4483.1357.9057.1806 1.372.1369.6646.4853 1.396.8967 2.1952 1.2347 4.0923.6483 8.2082.8316 12.3483.5491a49.201 49.201 0 0 1 7.9578-.823c1.2084-.1924 2.2147-.7418 3.0184-1.647 1.4277-.2868 2.7995-.6985 4.1162-1.2344-2.7302 1.917-5.7486 3.1982-9.0555 3.8413-5.5773.2709-11.1568.3169-16.7387.1376-6.7017-.9873-12.0984-4.0055-16.19-9.0556a1.354 1.354 0 0 0-.8232-.1371c-.8389-1.0314-1.6162-2.129-2.3325-3.2929-2.8025-5.4806-3.9457-11.2434-3.43-17.2877z" fill="#fbf0cd"/><path d="M37.7858 94.4129a1.355 1.355 0 0 1 .8235.1373c4.0917 5.0501 9.4879 8.0683 16.1898 9.0556 5.5818.1792 11.1615.1333 16.7387-.1375-1.0402.399-2.1378.7186-3.2928.9607-3.6579.1369-7.3163.1827-10.9762.1369-8.0885-.4299-14.5824-3.8145-19.483-10.153z" fill="#f3eed7"/><path d="M87.4536 93.0409c.1488.0163.2399.108.2742.2741-.6487.8783-1.2433 1.7926-1.7834 2.7447-7.5636 7.3289-16.6641 10.3471-27.3041 9.0549l-1.3717-.5485c3.6599.046 7.3186 0 10.976-.1372 1.1555-.2416 2.2531-.5619 3.2929-.9605 3.3072-.6438 6.3254-1.9242 9.0555-3.8418 2.8225-1.633 5.1094-3.8283 6.8606-6.5857z" fill="#360d0f"/><path d="M69.068 120.756c-5.1631.3495-10.2857.3495-15.3666 0 4.0257.0457 8.0504 0 12.0737-.1371.3615-.5237.865-.7526 1.5094-.6861.7691-.0496 1.3633.2251 1.7835.8232z" fill="#e0d4d4" opacity=".257"/></svg>